<svg width="756" height="756" xmlns="http://www.w3.org/2000/svg" xmlns:xlink="http://www.w3.org/1999/xlink" overflow="hidden"><g><path d="M189 252.001C189 217.207 217.207 189 252.001 189L503.999 189C538.793 189 567 217.207 567 252.001L567 503.999C567 538.793 538.793 567 503.999 567L252.001 567C217.207 567 189 538.793 189 503.999Z" stroke="#FFFFFF" stroke-width="8.00176" stroke-miterlimit="8" fill="none" fill-rule="evenodd"/><path d="M260 125 260 189.266" stroke="#FFFFFF" stroke-width="8.00176" stroke-miterlimit="8" fill="none" fill-rule="evenodd"/><path d="M294 125 294 189.266" stroke="#FFFFFF" stroke-width="8.00176" stroke-miterlimit="8" fill="none" fill-rule="evenodd"/><path d="M328 125 328 189.266" stroke="#FFFFFF" stroke-width="8.00176" stroke-miterlimit="8" fill="none" fill-rule="evenodd"/><path d="M361 125 361 189.266" stroke="#FFFFFF" stroke-width="8.00176" stroke-miterlimit="8" fill="none" fill-rule="evenodd"/><path d="M395 125 395 189.266" stroke="#FFFFFF" stroke-width="8.00176" stroke-miterlimit="8" fill="none" fill-rule="evenodd"/><path d="M428 125 428 189.266" stroke="#FFFFFF" stroke-width="8.00176" stroke-miterlimit="8" fill="none" fill-rule="evenodd"/><path d="M462 125 462 189.266" stroke="#FFFFFF" stroke-width="8.00176" stroke-miterlimit="8" fill="none" fill-rule="evenodd"/><path d="M496 125 496 189.266" stroke="#FFFFFF" stroke-width="8.00176" stroke-miterlimit="8" fill="none" fill-rule="evenodd"/><path d="M259 567 259 631.266" stroke="#FFFFFF" stroke-width="8.00176" stroke-miterlimit="8" fill="none" fill-rule="evenodd"/><path d="M292 567 292 631.266" stroke="#FFFFFF" stroke-width="8.00176" stroke-miterlimit="8" fill="none" fill-rule="evenodd"/><path d="M326 567 326 631.266" stroke="#FFFFFF" stroke-width="8.00176" stroke-miterlimit="8" fill="none" fill-rule="evenodd"/><path d="M359 567 359 631.266" stroke="#FFFFFF" stroke-width="8.00176" stroke-miterlimit="8" fill="none" fill-rule="evenodd"/><path d="M393 567 393 631.266" stroke="#FFFFFF" stroke-width="8.00176" stroke-miterlimit="8" fill="none" fill-rule="evenodd"/><path d="M426 567 426 631.266" stroke="#FFFFFF" stroke-width="8.00176" stroke-miterlimit="8" fill="none" fill-rule="evenodd"/><path d="M460 567 460 631.266" stroke="#FFFFFF" stroke-width="8.00176" stroke-miterlimit="8" fill="none" fill-rule="evenodd"/><path d="M494 567 494 631.266" stroke="#FFFFFF" stroke-width="8.00176" stroke-miterlimit="8" fill="none" fill-rule="evenodd"/><path d="M627.486 262 567 262" stroke="#FFFFFF" stroke-width="8.00176" stroke-miterlimit="8" fill="none" fill-rule="evenodd"/><path d="M627.486 296 567 296" stroke="#FFFFFF" stroke-width="8.00176" stroke-miterlimit="8" fill="none" fill-rule="evenodd"/><path d="M627.486 330 567 330" stroke="#FFFFFF" stroke-width="8.00176" stroke-miterlimit="8" fill="none" fill-rule="evenodd"/><path d="M627.486 363 567 363" stroke="#FFFFFF" stroke-width="8.00176" stroke-miterlimit="8" fill="none" fill-rule="evenodd"/><path d="M627.486 397 567 397" stroke="#FFFFFF" stroke-width="8.00176" stroke-miterlimit="8" fill="none" fill-rule="evenodd"/><path d="M627.486 430 567 430" stroke="#FFFFFF" stroke-width="8.00176" stroke-miterlimit="8" fill="none" fill-rule="evenodd"/><path d="M627.486 464 567 464" stroke="#FFFFFF" stroke-width="8.00176" stroke-miterlimit="8" fill="none" fill-rule="evenodd"/><path d="M627.486 497 567 497" stroke="#FFFFFF" stroke-width="8.00176" stroke-miterlimit="8" fill="none" fill-rule="evenodd"/><path d="M189.266 265 125 265" stroke="#FFFFFF" stroke-width="8.00176" stroke-miterlimit="8" fill="none" fill-rule="evenodd"/><path d="M189.266 299 125 299" stroke="#FFFFFF" stroke-width="8.00176" stroke-miterlimit="8" fill="none" fill-rule="evenodd"/><path d="M189.266 333 125 333" stroke="#FFFFFF" stroke-width="8.00176" stroke-miterlimit="8" fill="none" fill-rule="evenodd"/><path d="M189.266 366 125 366" stroke="#FFFFFF" stroke-width="8.00176" stroke-miterlimit="8" fill="none" fill-rule="evenodd"/><path d="M189.266 400 125 400" stroke="#FFFFFF" stroke-width="8.00176" stroke-miterlimit="8" fill="none" fill-rule="evenodd"/><path d="M189.266 433 125 433" stroke="#FFFFFF" stroke-width="8.00176" stroke-miterlimit="8" fill="none" fill-rule="evenodd"/><path d="M189.266 467 125 467" stroke="#FFFFFF" stroke-width="8.00176" stroke-miterlimit="8" fill="none" fill-rule="evenodd"/><path d="M189.266 500 125 500" stroke="#FFFFFF" stroke-width="8.00176" stroke-miterlimit="8" fill="none" fill-rule="evenodd"/><g><path d="M268 373.004 269.003 372.004 269.003 370.004 270.003 368.004 271.003 367.004 271.003 365.004 272.003 363.004 273.003 362.004 273.003 360.004 274.003 358.004 274.003 357.004 275.003 355.004 276.003 353.004 276.003 352.004 277.003 350.004 278.003 348.004 278.003 347.004 279.003 345.004 279.003 343.004 280.003 342.004 281.003 340.004 281.003 339.004 282.003 337.004 282.003 335.004 283.003 334.003 284.003 332.003 284.003 331.003 285.003 329.003 286.003 328.003 286.003 326.003 287.003 325.003 287.003 323.003 288.003 322.003 289.003 320.003 289.003 319.003 290.003 318.003 291.003 316.003 291.003 315.003 292.003 314.003 292.003 312.003 293.003 311.003 294.003 310.003 294.003 308.003 295.003 307.003 296.003 306.003 296.003 305.003 297.003 303.003 297.003 302.003 298.003 301.003 299.003 300.003 299.003 299.003 300.003 298.003 300.003 297.003 301.003 296.003 302.003 295.003 302.003 294.003 303.003 293.003 304.003 292.003 304.003 291.003 305.003 290.003 305.003 289.003 306.003 288.003 307.003 288.003 307.003 287.003 308.003 286.003 309.003 285.003 309.003 285.003 310.003 284.003 310.003 283.003 311.003 283.003 312.003 282.003 312.003 281.003 313.003 281.003 314.003 280.003 314.003 280.003 315.003 279.003 315.003 279.003 316.003 279.003 317.003 278.003 317.003 278.003 318.003 278.003 318.003 277.003 319.003 277.003 320.003 277.003 320.003 277.003 321.003 277.003 322.003 276.003 322.003 276.003 323.003 276.003 323.003 276.003 324.003 276 325.003 276.003 325.003 276.003 326.003 276.003 327.003 276.003 327.003 277.003 328.003 277.003 328.003 277.003 329.003 277.003 330.003 277.003 330.003 278.003 331.003 278.003 331.003 278.003 332.003 279.003 333.003 279.003 333.003 279.003 334.003 280.003 335.004 280.003 335.004 281.003 336.004 281.003 336.004 282.003 337.004 283.003 338.004 283.003 338.004 284.003 339.004 285.003 340.004 285.003 340.004 286.003 341.004 287.003 341.004 288.003 342.004 288.003 343.004 289.003 343.004 290.003 344.004 291.003 345.004 292.003 345.004 293.003 346.004 294.003 346.004 295.003 347.004 296.003 348.004 297.003 348.004 298.003 349.004 299.003 349.004 300.003 350.004 301.003 351.004 302.003 351.004 303.003 352.004 305.003 353.004 306.003 353.004 307.003 354.004 308.003 354.004 310.003 355.004 311.003 356.004 312.003 356.004 314.003 357.004 315.003 358.004 316.003 358.004 318.003 359.004 319.003 359.004 320.003 360.004 322.003 361.004 323.003 361.004 325.003 362.004 326.003 363.004 328.003 363.004 329.003 364.004 331.003 364.004 332.003 365.004 334.003 366.004 335.004 366.004 337.004 367.004 339.004 367.004 340.004 368.004 342.004 369.004 343.004 369.004 345.004 370.004 347.004 371.004 348.004 371.004 350.004 372.004 352.004 372.004 353.004 373.004 355.004 374.004 357.004 374.004 358.004 375.004 360.004 376.004 362.004 376.004 363.004 377.004 365.004 377.004 367.004 378.004 368.004 379.004 370.004 379.004 372.004 380.004 373.004 380.004 375.004 381.004 377.004 382.004 379.004 382.004 380.004 383.004 382.004 384.004 384.004 384.004 385.004 385.004 387.004 385.004 389.004 386.004 390.004 387.004 392.004 387.004 394.004 388.004 395.004 389.004 397.004 389.004 399.004 390.004 400.004 390.004 402.004 391.004 404.004 392.004 405.004 392.004 407.004 393.004 408.004 394.004 410.004 394.004 412.004 395.004 413.004 395.004 415.004 396.004 416.004 397.004 418.004 397.004 419.004 398.004 421.004 398.004 422.004 399.004 424.004 400.004 425.004 400.004 426.004 401.004 428.004 402.004 429.004 402.004 431.005 403.004 432.005 403.004 433.005 404.004 435.005 405.004 436.005 405.004 437.005 406.004 439.005 407.004 440.005 407.004 441.005 408.004 442.005 408.004 443.005 409.004 445.005 410.004 446.005 410.004 447.005 411.004 448.005 412.004 449.005 412.004 450.005 413.004 451.005 413.004 452.005 414.004 453.005 415.004 454.005 415.004 455.005 416.004 456.005 416.004 457.005 417.004 458.005 418.004 459.005 418.004 459.005 419.004 460.005 420.004 461.005 420.004 462.005 421.004 462.005 421.004 463.005 422.004 464.005 423.004 464.005 423.004 465.005 424.004 465.005 425.004 466.005 425.004 467.005 426.004 467.005 426.004 467.005 427.004 468.005 428.004 468.005 428.004 469.005 429.004 469.005 429.004 469.005 430.005 470.005 431.005 470.005 431.005 470.005 432.005 470.005 433.005 470.005 433.005 471.005 434.005 471.005 434.005 471.005 435.005 471.005 436.005 471 436.005 471.005 437.005 471.005 438.005 471.005 438.005 471.005 439.005 470.005 439.005 470.005 440.005 470.005 441.005 470.005 441.005 470.005 442.005 469.005 443.005 469.005 443.005 469.005 444.005 468.005 444.005 468.005 445.005 467.005 446.005 467.005 446.005 467.005 447.005 466.005 447.005 465.005 448.005 465.005 449.005 464.005 449.005 464.005 450.005 463.005 451.005 462.005 451.005 462.005 452.005 461.005 452.005 460.005 453.005 459.005 454.005 459.005 454.005 458.005 455.005 457.005 456.005 456.005 456.005 455.005 457.005 454.005 457.005 453.005 458.005 452.005 459.005 451.005 459.005 450.005 460.005 449.005 461.005 448.005 461.005 447.005 462.005 446.005 462.005 445.005 463.005 443.005 464.005 442.005 464.005 441.005 465.005 440.005 465.005 439.005 466.005 437.005 467.005 436.005 467.005 435.005 468.005 433.005 469.005 432.005 469.005 431.005 470.005 429.004 470.005 428.004 471.005 426.004 472.005 425.004 472.005 424.004 473.005 422.004 474.005 421.004 474.005 419.004 475.005 418.004 475.005 416.004 476.005 415.004 477.005 413.004 477.005 412.004 478.005 410.004 479.005 408.004 479.005 407.004 480.005 405.004 480.005 404.004 481.005 402.004 482.005 400.004 482.005 399.004 483.005 397.004 483.005 395.004 484.005 394.004 485.005 392.004 485.005 390.004 486.005 389.004 487.005 387.004 487.005 385.004 488.005 384.004 488.005 382.004 489.005 380.004 490.005 379.004 490.005 377.004 491.005 375.004 492 373.004" stroke="#FFFFFF" stroke-width="8.00176" stroke-linecap="round" stroke-linejoin="round" stroke-miterlimit="10" fill="none"/></g></g></svg>